<svg xmlns="http://www.w3.org/2000/svg" viewBox="0 0 32 32" fill="none">
  <circle cx="16" cy="14" r="12" fill="#9A3412"/>
  <path d="M16 30 L16 26" stroke="#9A3412" stroke-width="2" stroke-linecap="round"/>
  <path d="M11 14h10a1.5 1.5 0 0 1 1.5 1.5v.5a3 3 0 0 1-3 3h-7a3 3 0 0 1-3-3v-.5A1.5 1.5 0 0 1 11 14z" fill="white"/>
  <path d="M11 14v-3a4 4 0 0 1 4-3.5h2a4 4 0 0 1 4 3.5v3" stroke="white" stroke-width="1.5" stroke-linecap="round" fill="none"/>
  <path d="M16 19v1.5" stroke="white" stroke-width="1.5" stroke-linecap="round"/>
</svg>
